<?xml version="1.0" encoding="utf-8"?>
<!-- Generator: Adobe Illustrator 19.0.0, SVG Export Plug-In . SVG Version: 6.00 Build 0)  -->
<svg version="1.1" xmlns="http://www.w3.org/2000/svg" xmlns:xlink="http://www.w3.org/1999/xlink" x="0px" y="0px"
	 viewBox="0 0 960 109.4" style="enable-background:new 0 0 960 109.4;" xml:space="preserve">
<style type="text/css">
	.st0{fill:none;}
	.st1{clip-path:url(#XMLID_40_);}
	.st2{clip-path:url(#XMLID_45_);fill:#B89C94;}
	.st3{clip-path:url(#XMLID_45_);}
	.st4{opacity:0.55;fill:#FFFFFF;}
	.st5{opacity:6.000000e-002;clip-path:url(#XMLID_45_);fill:#FFFFFF;}
	.st6{opacity:0.55;clip-path:url(#XMLID_45_);fill:#FFFFFF;}
</style>
<g id="Camada_1">
</g>
<g id="Camada_2">
	<line id="XMLID_97_" class="st0" x1="923.8" y1="136.7" x2="861.3" y2="138.1"/>
	<line id="XMLID_95_" class="st0" x1="923.8" y1="135.6" x2="861.3" y2="137"/>
</g>
<g id="Camada_3">
	<g id="XMLID_31_">
		<defs>
			<rect id="XMLID_29_" x="114" y="6" width="778.5" height="98"/>
		</defs>
		<clipPath id="XMLID_40_">
			<use xlink:href="#XMLID_29_"  style="overflow:visible;"/>
		</clipPath>
		<g id="XMLID_22_" class="st1">
			<defs>
				
					<rect id="XMLID_6_" x="121.8" y="0" transform="matrix(0.9999 1.357898e-002 -1.357898e-002 0.9999 0.7881 -6.6621)" width="738.4" height="109.4"/>
			</defs>
			<clipPath id="XMLID_45_">
				<use xlink:href="#XMLID_6_"  style="overflow:visible;"/>
			</clipPath>
			
				<rect id="XMLID_149_" x="121.8" y="40.9" transform="matrix(0.9999 1.357898e-002 -1.357898e-002 0.9999 1.2441 -6.6584)" class="st2" width="738.4" height="94.7"/>
			
				<rect id="XMLID_146_" x="122.3" y="0" transform="matrix(0.9999 1.357898e-002 -1.357898e-002 0.9999 0.3233 -6.6716)" class="st2" width="738.4" height="40.9"/>
			<g id="XMLID_3_" class="st3">
				<path id="XMLID_98_" class="st4" d="M862.5,43.9l-1.1,19.6c-67-27.6-149.9-39-224.7-27.4c-72,11.1-133.1,40.5-204.4,53.1
					c-39.6,7-81.6,8.7-123.3,7.4c-63.8-2-127.3-11.1-187.7-26.5l1.1-19.6c60.3,15.3,123.9,24.5,187.7,26.5
					c41.7,1.3,83.7-0.4,123.3-7.4c71.3-12.6,132.4-42,204.4-53.1C712.6,4.9,795.5,16.3,862.5,43.9z"/>
				<path id="XMLID_96_" class="st4" d="M862.6,57.4l-1.9,19.5c-65.9-30.3-148.2-44.9-223.4-36.3c-72.4,8.3-134.6,35.2-206.4,45
					c-39.9,5.4-81.8,5.4-123.5,2.5C243.8,83.6,180.7,71.9,121,54.2l1.9-19.5c59.7,17.7,122.8,29.4,186.5,33.8
					c41.6,2.9,83.6,2.9,123.5-2.5c71.7-9.8,134-36.7,206.4-45C714.4,12.6,796.8,27.2,862.6,57.4z"/>
			</g>
			<path id="XMLID_94_" class="st5" d="M862.6,55.4l-1.9,20.2c-66.1-29.9-148.5-43.9-223.7-34.9c-72.3,8.7-134.4,36-206.1,46.3
				c-39.8,5.7-81.8,5.9-123.4,3.3C243.9,86.3,180.7,75,120.9,57.7l1.9-20.2c59.8,17.3,123,28.6,186.7,32.7
				c41.6,2.7,83.6,2.4,123.4-3.3C504.6,56.6,566.7,29.3,639,20.6C714.1,11.5,796.6,25.6,862.6,55.4z"/>
			<polygon id="XMLID_17_" class="st6" points="873,66.3 773,38.2 671.5,25.5 607.8,34.6 529,55.1 413.4,80 357.8,83.2 301.6,82.4 
				238.4,75.6 172.5,61.6 110,49.4 108.5,161.8 922.3,164.7 907.8,72.7 			"/>
		</g>
	</g>
</g>
</svg>
