<?xml version="1.0" encoding="utf-8"?>
<!-- Generator: Adobe Illustrator 19.0.0, SVG Export Plug-In . SVG Version: 6.00 Build 0)  -->
<svg version="1.1" id="Camada_1" xmlns="http://www.w3.org/2000/svg" xmlns:xlink="http://www.w3.org/1999/xlink" x="0px" y="0px"
	 viewBox="0 0 300 300" style="enable-background:new 0 0 300 300;" xml:space="preserve">
<style type="text/css">
	.st0{fill:#FFFFFF;}
</style>
<path id="XMLID_10_" class="st0" d="M153.8,29.8c14.6,0,29.2,0,43.8,0c3.1,0,6,0.7,8.9,2.1c12.7,6.5,25.4,13,38.2,19.4
	c2.1,1,3.4,2.6,4.5,4.7c16.4,29.4,32.7,58.9,49.3,88.1c2.5,4.4,1.6,6.6-1.8,9.6c-22.5,19.6-44.9,39.3-67.3,58.9
	c-23.6,20.7-47.2,41.3-70.7,62.2c-3.7,3.3-5.9,3.3-9.7,0c-45.5-40.2-91.2-80.2-136.8-120.2c-5.7-5-5.9-5-2.2-11.6
	c16.2-29,32.4-57.9,48.5-86.9c1.1-2,2.3-3.7,4.4-4.7c13-6.5,26-13.2,39-19.8c2.7-1.4,5.5-1.7,8.5-1.7
	C125,29.9,139.4,29.8,153.8,29.8z M154,42.7c-14.1,0-28.2,0-42.4,0c-2.2,0-4.3,0.1-6.3,1.2c-9.1,4.7-18.2,9.4-27.4,13.9
	c-2.6,1.3-3.2,2.4-1,4.8c9.6,10.7,19,21.5,28.4,32.4c1.5,1.7,3.1,2.3,5.3,2.3c28.7,0,57.4,0,86.1,0c2.3,0,4-0.6,5.6-2.5
	c9.3-10.8,18.6-21.5,28.1-32c2.4-2.7,1.7-3.8-1.1-5.1c-8.6-4.2-17.2-8.6-25.7-13.1c-2.5-1.3-5.1-2-8-1.9
	C181.9,42.7,168,42.7,154,42.7z M153.7,174.3c17.4,0,34.7-0.1,52.1,0.1c4,0,5-1.2,4.2-5.3c-3.7-18-7.2-36-10.5-54.1
	c-0.8-4.2-2.7-5.4-6.6-5.3c-26,0.2-51.9,0.2-77.9,0c-3.9,0-5.8,1.2-6.5,5.4c-3.3,18.1-6.9,36.1-10.5,54.1c-0.9,4.2,0.2,5.3,4.2,5.3
	C119.3,174.2,136.5,174.3,153.7,174.3z M241.5,69.5c-0.5,0.5-1.3,1-1.9,1.7c-9.3,10.6-18.5,21.2-27.7,31.7c-1.5,1.7-2,3.4-1.6,5.7
	c3.9,19.9,7.8,39.8,11.7,59.7c0.5,2.7,1.4,3.5,4,2.3c18.4-8.1,36.8-16.1,55.3-24.1c2.5-1.1,3.3-2.4,1.8-5.1
	c-13-23.2-26-46.5-39-69.7C243.4,70.9,243.1,69.7,241.5,69.5z M97.8,106.6c-0.2-2.3-1.9-3.8-3.3-5.5c-8.3-9.5-16.6-19-25-28.5
	c-3.8-4.3-3.9-4.3-6.7,0.7C50.4,95.7,38.1,118,25.4,140.2c-2.2,3.8-1.6,5.3,2.2,7c17.8,7.6,35.5,15.3,53.2,23.2
	c3.8,1.7,4.7,0.3,5.3-3.2c2.5-13.5,5.1-26.9,7.7-40.4C95.2,120.1,96.5,113.5,97.8,106.6z M102.1,187.5c1.3,2,2.1,3.3,3,4.5
	c15.2,20.9,30.3,41.9,45.5,62.8c3.3,4.6,3.3,4.5,6.8-0.2c15-20.7,30-41.3,44.9-62c1.1-1.5,2.6-2.7,2.8-5.1
	C170.9,187.5,136.9,187.5,102.1,187.5z M51.2,171c-0.1,0.2-0.2,0.5-0.4,0.7c21.3,18.6,42.7,37.2,64,55.8
	c-9.1-13.8-18.8-27.1-28.5-40.4c-0.5-0.6-1.1-1.2-1.8-1.5C73.5,180.8,62.3,175.9,51.2,171z M192.4,227c0.2,0.1,0.4,0.3,0.7,0.4
	c21.3-18.6,42.6-37.1,63.8-55.7c-11.2,4-22,8.7-32.8,13.4c-1.3,0.6-2.4,1.4-3.3,2.6C211.4,200.9,201.9,213.9,192.4,227z"/>
</svg>
