<?xml version="1.0" encoding="utf-8"?>
<!-- Generator: Adobe Illustrator 25.2.1, SVG Export Plug-In . SVG Version: 6.00 Build 0)  -->
<svg version="1.1" id="Camada_1" xmlns="http://www.w3.org/2000/svg" xmlns:xlink="http://www.w3.org/1999/xlink" x="0px" y="0px"
	 viewBox="0 0 100 100" style="enable-background:new 0 0 100 100;" xml:space="preserve">
<style type="text/css">
	.st0{fill:#E83660;}
</style>
<symbol  id="Coroa-RF" viewBox="-65.36 -47.67 130.72 95.35">
	<g>
		<path class="st0" d="M-38.17-10.38c0.07,2.05-0.18,4.04-0.38,6.04c-0.15,1.49-1.11,2.26-1.98,3.07c-1.17,1.1-2.47,1.99-4,2.38
			c-0.46,0.12-0.56,0.44-0.39,0.93c0.51,1.36,0.74,2.81,1.11,4.21c0.22,0.82,0.22,1.66,0.33,2.49c0.04,0.34-0.1,0.47-0.37,0.59
			c-1.17,0.52-1.63,1.89-1.12,3.21c0.45,1.16,1.74,1.72,2.75,1.19c1.01-0.52,1.48-2,0.93-3.21c-0.23-0.52-0.09-0.73,0.24-1.08
			c1.36-1.42,2.9-2.52,4.52-3.5c0.58-0.36,0.74-0.7,0.42-1.41c-0.51-1.16-1-2.31-1.36-3.57c-0.63-2.2-0.1-4.01,0.93-5.82
			c1.2-2.11,2.38-4.22,4.08-5.88c1.48-1.44,3.09-2.48,5.16-2.32c1.78,0.14,3.03,1.17,3.61,3.08c0.77,2.51,0.69,5.07,0.47,7.66
			c-0.19,2.24-0.62,4.45-0.89,6.67c-0.3,2.46-1.56,4-3.28,5.25c-1.02,0.74-2.07,1.43-3.26,1.74c-0.66,0.17-0.7,0.6-0.52,1.14
			c0.42,1.27,0.68,2.59,1.02,3.89c0.2,0.77,0.23,1.55,0.4,2.32c0.17,0.78-0.03,1.32-0.71,1.73c-1.13,0.69-1.44,2.02-0.97,3.26
			c0.6,1.58,2.03,1.67,2.99,1.28c1.09-0.44,1.67-2.02,1.18-3.26c-0.26-0.66-0.21-1.06,0.27-1.54c1.03-1.04,2.16-1.92,3.35-2.7
			c0.58-0.38,1.1-0.87,1.76-1.12c0.45-0.17,0.44-0.66,0.19-1.1c-0.68-1.2-1.19-2.48-1.49-3.87c-0.15-0.71-0.31-1.43-0.4-2.15
			c-0.09-0.68-0.03-1.32,0.33-1.95c0.97-1.72,1.84-3.52,2.96-5.12c1.75-2.51,3.66-4.86,6.52-5.83c1.86-0.63,3.63-0.41,5.27,0.83
			c1.88,1.42,2.84,3.58,3.59,5.85c1.07,3.25,1.64,6.64,2.08,10.06c0.24,1.88,0.54,3.75,0.87,5.6c0.13,0.69,0.02,1.3-0.35,1.76
			c-1.46,1.83-2.86,3.71-4.69,5.15c-0.81,0.63-1.68,1.15-2.48,1.8c-0.47,0.39-0.41,0.7-0.01,1.09c2.17,2.12,4.23,4.36,5.96,6.95
			c0.27,0.41,0.58,0.79,0.88,1.18c0.34,0.43,0.3,0.71-0.14,1.09c-2.17,1.89-2.75,4.62-1.46,7.29c0.75,1.55,2.04,2.45,3.62,2.65
			c1.83,0.23,3.39-0.41,4.51-2.12c1.72-2.62,1.09-6.1-1.07-7.78c-0.5-0.39-0.57-0.7-0.2-1.15c0.83-1.02,1.51-2.16,2.38-3.16
			C6,32.31,6.89,31.08,7.91,30c0.51-0.54,1.04-1.04,1.57-1.56c0.56-0.56,0.58-0.76-0.08-1.16c-0.94-0.57-1.84-1.19-2.69-1.92
			c-1.68-1.44-3.18-3.08-4.4-5.02c-0.33-0.52-0.48-1.05-0.35-1.74c0.73-3.9,1.09-7.89,1.94-11.76c0.57-2.62,1.3-5.16,2.64-7.45
			c1.87-3.21,5.49-4.32,8.55-2.53c1.42,0.83,2.52,2.06,3.62,3.33c1.7,1.96,2.94,4.26,4.23,6.56c0.94,1.66,0.59,3.21,0.2,4.82
			c-0.32,1.33-0.76,2.63-1.52,3.75c-0.28,0.41-0.22,0.76,0.21,0.98c1.5,0.77,2.78,1.92,4.15,2.92c0.4,0.29,0.77,0.65,1.1,1.05
			c0.3,0.37,0.41,0.8,0.2,1.34c-0.48,1.26-0.13,2.53,0.79,3.14c1.06,0.7,2.32,0.51,3.03-0.46c0.68-0.92,0.65-2.55-0.07-3.48
			c-0.26-0.35-0.65-0.48-1-0.65c-0.32-0.15-0.45-0.35-0.41-0.74c0.25-2.3,0.76-4.53,1.5-6.69c0.33-0.98,0.29-1.12-0.6-1.42
			c-2.24-0.75-4.02-2.3-5.65-4.13c-0.37-0.42-0.36-0.95-0.45-1.42c-0.74-3.65-1.29-7.34-1.36-11.1c-0.03-1.42,0.18-2.82,0.5-4.19
			c0.87-3.67,4.08-4.14,6.47-3.02c1.17,0.55,2.17,1.41,3.02,2.43c1,1.2,1.98,2.44,2.72,3.88c0.59,1.15,1.12,2.34,1.74,3.47
			c0.49,0.9,0.23,1.8,0.12,2.69c-0.21,1.63-0.79,3.12-1.47,4.57c-0.41,0.86-0.32,1.11,0.48,1.57c1.59,0.92,3.03,2.11,4.42,3.36
			c0.35,0.32,0.41,0.6,0.2,1.1c-0.54,1.31-0.04,2.8,1,3.24c1.13,0.49,2.41-0.14,2.81-1.38c0.33-1.02-0.09-2.36-0.99-2.87
			c-0.48-0.27-0.6-0.61-0.57-1.16c0.11-1.75,0.53-3.43,1.06-5.05c0.6-1.85,0.66-1.83-0.98-2.53c-1.66-0.71-3.02-1.9-4.32-3.21
			c-0.57-0.57-0.67-1.37-0.77-2.15c-0.4-3.13-0.58-6.28-0.2-9.42c0.2-1.69,0.64-3.34,1.75-4.64c1.46-1.71,3.14-2.05,5-1.15
			c2.05,0.99,3.34,2.93,4.38,5.03c0.87,1.76,0.23,3.54-0.31,5.26c-0.22,0.68-0.46,1.37-0.89,1.95c-0.29,0.4-0.16,0.66,0.22,0.89
			c1.34,0.81,2.62,1.73,3.84,2.75c0.45,0.37,0.69,0.81,0.48,1.54c-0.34,1.13,0.1,2.26,0.92,2.73c0.84,0.48,1.99,0.17,2.61-0.71
			c0.66-0.94,0.45-2.57-0.52-3.19c-0.64-0.41-0.66-0.91-0.54-1.56c0.31-1.59,0.59-3.19,1.17-4.69c0.26-0.68,0.1-1.04-0.48-1.22
			c-2.04-0.61-3.61-2.02-5-3.74c-0.18-0.23-0.37-0.45-0.38-0.77c-0.07-1.85-0.19-3.73,0.62-5.43c1.04-2.18,3.24-3.2,5.42-1.73
			c1.06,0.71,1.68,1.83,2.46,2.79c0.25,0.31,0.15,0.72,0.12,1.1c-0.13,1.43-0.58,2.75-1.23,3.97c-0.34,0.65-0.24,1.04,0.35,1.35
			c1.15,0.6,2.08,1.57,3.16,2.3c0.42,0.28,0.36,0.68,0.22,1.14c-0.47,1.55,0.53,2.99,1.95,2.84c0.79-0.08,1.37-0.49,1.6-1.4
			c0.24-0.92,0.11-1.81-0.56-2.37c-0.55-0.46-0.56-0.95-0.47-1.56c0.18-1.24,0.51-2.42,0.87-3.61c0.44-1.43,0.31-1.37-0.77-1.71
			c-1.4-0.44-2.37-1.5-3.44-2.45c-0.58-0.51-0.46-1.35-0.58-2.04c-0.75-4.49-2.33-8.6-4.44-12.48c-0.39-0.72-0.85-1.39-1.22-2.12
			c-0.36-0.7-0.83-0.78-1.41-0.45c-1.65,0.93-3.38,1.6-5.11,2.3c-2.28,0.93-4.62,1.57-6.95,2.28c-2.43,0.74-4.9,1.25-7.37,1.75
			c-3.04,0.63-6.11,1.08-9.18,1.53c-3.86,0.56-7.74,0.84-11.61,1.18c-2.34,0.21-4.69,0.18-7.04,0.28
			c-3.92,0.17-7.85,0.17-11.77,0.04c-3.65-0.12-7.29-0.36-10.94-0.66c-3.23-0.26-6.46-0.62-9.67-1.09c-2.77-0.4-5.54-0.87-8.29-1.47
			c-1.33-0.29-2.65-0.61-3.98-0.92c-3.57-0.85-7.1-1.89-10.52-3.37c-1.33-0.58-2.68-1.05-3.93-1.86c-0.74-0.48-1.16-0.24-1.65,0.6
			c-1.51,2.59-2.88,5.27-3.89,8.16c-0.8,2.31-1.47,4.66-1.78,7.12c-0.14,1.1-0.77,1.72-1.5,2.27c-0.88,0.67-1.83,1.22-2.84,1.61
			c-0.46,0.18-0.64,0.37-0.44,1c0.48,1.45,0.8,2.96,1.05,4.48c0.08,0.47-0.02,0.71-0.38,0.99c-1.05,0.81-1.11,2.54-0.17,3.45
			c0.64,0.61,1.47,0.72,2.16,0.27c0.77-0.5,1.21-1.43,0.92-2.34c-0.31-0.96,0.07-1.39,0.71-1.83c0.99-0.67,1.86-1.56,2.93-2.09
			c0.5-0.24,0.34-0.64,0.11-1.08c-0.7-1.37-1.29-2.76-1.31-4.42c-0.02-1.07,0.73-1.48,1.15-2.16c0.33-0.53,0.89-0.9,1.37-1.3
			c2.15-1.79,5.38-0.29,5.95,3.21c0.19,1.16,0.2,2.33,0.15,3.49c-0.05,1.15-0.78,1.86-1.49,2.49c-1.15,1.02-2.36,1.99-3.82,2.39
			c-0.69,0.19-0.75,0.61-0.52,1.27c0.53,1.5,0.84,3.05,1.1,4.64c0.12,0.76,0.03,1.24-0.6,1.69c-1.07,0.77-1.07,2.76-0.07,3.6
			c0.66,0.56,1.95,0.52,2.65-0.09c0.68-0.59,0.92-1.67,0.54-2.65c-0.14-0.36-0.09-0.59,0.13-0.87c0.51-0.63,1.09-1.22,1.74-1.57
			c0.81-0.44,1.49-1.1,2.3-1.53c0.56-0.3,0.45-0.75,0.22-1.23c-0.66-1.34-1.13-2.74-1.4-4.26c-0.23-1.3-0.02-2.33,0.67-3.42
			c0.94-1.5,1.96-2.87,3.32-3.88c2.46-1.82,5.37-0.86,6.63,2.13C-38.23-15.02-38.1-12.7-38.17-10.38z M-4.56-17.4
			c0-2.97,2-5.09,4.77-5.12c2.46-0.02,4.36,2.61,4.43,5.14c0.07,2.58-2.3,5.12-4.6,5.1C-2.46-12.3-4.56-14.64-4.56-17.4z
			 M16.11-17.92c0.13,2.24-2.02,4.56-4.12,4.49C9.51-13.5,7.88-16,7.96-18.06c0.1-2.41,1.73-4.46,4.23-4.47
			C14.27-22.55,16.29-20.07,16.11-17.92z M-12.08-13.51c-2.56,0.09-4.13-2.39-3.99-4.79c0.14-2.41,2.06-4.39,4.19-4.19
			c2.29,0.21,4.01,2.03,3.89,4.8C-8.08-15.26-9.99-13.35-12.08-13.51z M22.2-23.17c1.62,0.03,2.83,1.35,2.83,3.1
			c0,1.79-1.27,3.25-2.83,3.24c-1.38-0.01-2.94-1.32-2.86-3.47C19.39-21.74,20.82-23.19,22.2-23.17z M-22.28-23.17
			c1.69-0.02,2.96,1.34,2.97,3.16c0.01,1.59-1.4,3.13-2.87,3.17c-1.44,0.04-2.86-1.53-2.87-3.16
			C-25.06-21.57-23.68-23.15-22.28-23.17z M-30.45-24.78c1.33-0.01,2.52,1.3,2.53,2.79c0.01,1.35-1.28,2.7-2.6,2.72
			c-1.17,0.01-2.39-1.36-2.38-2.69C-32.89-23.38-31.68-24.77-30.45-24.78z M32.82-22.11c0.03,1.44-1.05,2.74-2.27,2.86
			c-1.17,0.11-2.62-1.46-2.6-2.73c0.03-1.44,1.13-2.73,2.44-2.78C31.69-24.8,32.79-23.61,32.82-22.11z M-37.58-26.92
			c1.04-0.01,1.94,0.94,1.96,2.08c0.02,1.08-0.87,2.13-1.81,2.15c-1.07,0.02-1.97-0.92-2-2.11C-39.46-25.84-38.53-26.91-37.58-26.92
			z M39.45-24.76c-0.01,0.97-0.99,2.07-1.84,2.06c-1-0.01-2.01-1.11-1.99-2.17c0.01-1.06,0.99-2.05,2.01-2.03
			C38.54-26.9,39.45-25.83,39.45-24.76z M-44.31-27.47c0-0.89,0.8-1.81,1.58-1.82c0.7-0.01,1.47,0.93,1.48,1.8
			c0,0.9-0.79,1.79-1.59,1.78C-43.6-25.73-44.32-26.58-44.31-27.47z M44.38-27.57c-0.01,0.9-0.79,1.84-1.54,1.85
			c-0.68,0.01-1.58-1.04-1.58-1.84c0-0.86,0.8-1.67,1.66-1.68C43.68-29.25,44.38-28.44,44.38-27.57z"/>
		<path class="st0" d="M-5.01-31.79c4.09,0.31,8.18,0.1,12.26-0.03c2.63-0.08,5.27-0.25,7.9-0.47c3.19-0.27,6.38-0.62,9.55-1.04
			c3.7-0.49,7.38-1.12,11.04-1.83c3.23-0.63,6.43-1.33,9.62-2.15c1.28-0.33,2.58-0.57,3.78-1.14c2.83-1.36,4.13-5.12,1.47-7.65
			c-1.73-1.65-3.84-1.81-6.06-1.29c-2.27,0.53-4.51,1.14-6.79,1.65c-3.01,0.68-6.05,1.22-9.1,1.74c-3.27,0.56-6.55,1-9.85,1.35
			c-4.44,0.48-8.89,0.85-13.36,0.97c-2.11,0.06-4.22,0.17-6.34,0.12c-4.82-0.11-9.63-0.24-14.43-0.73
			c-2.64-0.27-5.29-0.51-7.92-0.87c-2.63-0.36-5.25-0.78-7.85-1.26c-2.07-0.38-4.11-0.86-6.17-1.27c-2.65-0.52-5.24-1.27-7.88-1.81
			c-2.3-0.47-4.44,0.03-5.89,1.79c-1.49,1.8-1.25,4.26,0.26,5.97c0.96,1.08,2.2,1.66,3.65,2.02c3.39,0.85,6.79,1.65,10.22,2.34
			c2.78,0.56,5.57,1.08,8.37,1.49c3.85,0.56,7.7,1.06,11.58,1.43c2.88,0.27,5.76,0.4,8.64,0.58C-7.21-31.82-6.11-31.8-5.01-31.79z"
			/>
	</g>
</symbol>
<use xlink:href="#Coroa-RF"  width="130.72" height="95.35" x="-65.36" y="-47.67" transform="matrix(0.7005 0 0 -0.7005 50 46.4347)" style="overflow:visible;"/>
</svg>
